<svg width="75" height="75" viewBox="0 0 75 75" fill="none" xmlns="http://www.w3.org/2000/svg">
<rect x="0.5" y="0.5" width="74" height="74" rx="37" fill="#EEEEEE" fill-opacity="0.25" stroke="#14AA00"/>
<g opacity="0.85">
<path d="M38.3649 13.4578C27.5555 17.5711 19.8991 26.6581 19.7216 37.0908C19.5503 47.1323 26.3542 55.7023 36.3812 59.6925C36.356 60.6555 36.3358 61.5454 36.3226 62.3281L38.7415 62.2895C38.7546 61.5067 38.7649 60.6173 38.7724 59.6543C48.9409 55.342 56.0406 46.5498 56.2118 36.5086C56.3897 26.0755 49.0394 17.2277 38.3649 13.4578Z" fill="#93B793"/>
<path d="M38.7174 63.6159C38.7152 63.7314 38.7159 63.7004 38.7174 63.6159V63.6159Z" fill="#6DB96D"/>
<path d="M38.7256 63.2049C38.7241 63.2942 38.7227 63.3639 38.7218 63.4261C38.724 63.3122 38.7256 63.2049 38.7256 63.2049Z" fill="#6DB96D"/>
<path d="M38.7222 63.4947C38.7214 63.5381 38.7207 63.5792 38.7204 63.613C38.7208 63.5838 38.7216 63.5427 38.7222 63.4947Z" fill="#6DB96D"/>
<path d="M19.0356 36.4273C18.8573 46.8608 26.208 55.7082 36.8829 59.4777L37.6788 12.7943C26.8696 16.9075 19.2131 25.9946 19.0356 36.4273Z" fill="#8AC887"/>
<path d="M55.5248 35.8435C55.347 46.2766 47.6909 55.364 36.882 59.4762L37.6779 12.7927C48.3525 16.5625 55.7028 25.4104 55.5248 35.8435Z" fill="#78C175"/>
<path d="M38.0404 62.5397C38.1126 62.2538 38.1126 62.2538 38.0559 61.6249C38.2471 50.3879 37.8175 18.8342 37.5975 17.5894C37.3342 18.8419 35.8286 50.4269 35.6371 61.6635C35.626 62.3105 35.621 62.5779 35.621 62.5779L38.0404 62.5397Z" fill="#6DB96D"/>
<path d="M37.7609 34.6625C37.7609 34.6625 37.7609 34.6625 37.2381 34.1567C34.8869 31.8813 27.8147 25.9391 27.438 25.7985C27.5824 26.1639 33.7231 33.0076 36.0743 35.283C36.5966 35.7892 36.5966 35.7892 36.5966 35.7892L37.7609 34.6625Z" fill="#6DB96D"/>
<path d="M37.5635 46.433C37.5635 46.433 37.5635 46.433 37.0409 45.9272C34.6896 43.6517 27.6175 37.7095 27.2403 37.5695C27.3846 37.9348 33.5257 44.7788 35.8766 47.0539C36.3993 47.5597 36.3993 47.5597 36.3993 47.5597L37.5635 46.433Z" fill="#6DB96D"/>
<path d="M37.0527 34.6738C37.0527 34.6738 37.0527 34.6738 37.5929 34.1511C40.0231 31.7993 47.3014 25.6276 47.6839 25.4758C47.527 25.8459 41.1496 32.8895 38.7194 35.2412C38.1792 35.764 38.1792 35.764 38.1792 35.764L37.0527 34.6738Z" fill="#6DB96D"/>
<path d="M36.8535 46.4443C36.8535 46.4443 36.8535 46.4443 37.3938 45.9215C39.8235 43.5702 47.1026 37.3985 47.4847 37.2462C47.3279 37.6164 40.95 44.6603 38.5203 47.0117C37.9804 47.5349 37.9804 47.5349 37.9804 47.5349L36.8535 46.4443Z" fill="#6DB96D"/>
</g>
<path d="M17.8 46.25C17.4667 46.25 17.2167 46.2 17.05 46.1C16.8833 46.0167 16.7667 45.8917 16.7 45.725C16.65 45.5583 16.625 45.3583 16.625 45.125V29.95C16.625 29.7 16.65 29.4917 16.7 29.325C16.75 29.1583 16.85 29.0333 17 28.95C17.1667 28.85 17.4167 28.8 17.75 28.8C18.0833 28.8 18.325 28.85 18.475 28.95C18.6417 29.0333 18.75 29.1583 18.8 29.325C18.85 29.4917 18.875 29.6917 18.875 29.925V44.15H27.25C27.4667 44.15 27.65 44.175 27.8 44.225C27.95 44.275 28.0667 44.375 28.15 44.525C28.25 44.675 28.3 44.9 28.3 45.2C28.3 45.4833 28.2583 45.7083 28.175 45.875C28.0917 46.025 27.975 46.125 27.825 46.175C27.675 46.225 27.4917 46.25 27.275 46.25H17.8ZM31.9404 46.25C31.6238 46.25 31.3821 46.2 31.2154 46.1C31.0488 46.0167 30.9404 45.8917 30.8904 45.725C30.8571 45.5417 30.8404 45.3333 30.8404 45.1V29.9C30.8404 29.6833 30.8654 29.5 30.9154 29.35C30.9821 29.1833 31.0904 29.05 31.2404 28.95C31.4071 28.85 31.6488 28.8 31.9654 28.8H37.4904C38.3071 28.8 39.0488 28.925 39.7154 29.175C40.3988 29.4083 40.9904 29.7583 41.4904 30.225C41.9904 30.6917 42.3738 31.2833 42.6404 32C42.9238 32.7 43.0654 33.5167 43.0654 34.45C43.0654 35.0333 42.9738 35.6417 42.7904 36.275C42.6071 36.8917 42.3238 37.475 41.9404 38.025C41.5738 38.575 41.0988 39.0333 40.5154 39.4C39.9321 39.7667 39.2238 39.975 38.3904 40.025H33.0904V45.125C33.0904 45.3583 33.0571 45.5583 32.9904 45.725C32.9404 45.8917 32.8321 46.0167 32.6654 46.1C32.5154 46.2 32.2738 46.25 31.9404 46.25ZM42.6654 45.975C42.3154 46.2083 42.0154 46.2833 41.7654 46.2C41.5321 46.1167 41.3071 45.9167 41.0904 45.6L37.0904 39.2L39.5654 38.825L43.0154 44.325C43.1821 44.5917 43.2821 44.8167 43.3154 45C43.3654 45.1833 43.3321 45.35 43.2154 45.5C43.1154 45.65 42.9321 45.8083 42.6654 45.975ZM33.0904 37.825H38.0404C38.4238 37.825 38.7821 37.7583 39.1154 37.625C39.4488 37.475 39.7404 37.2583 39.9904 36.975C40.2404 36.6917 40.4404 36.3417 40.5904 35.925C40.7404 35.5083 40.8154 35.0083 40.8154 34.425C40.8154 33.7083 40.6821 33.1 40.4154 32.6C40.1654 32.1 39.7904 31.725 39.2904 31.475C38.7904 31.2083 38.1738 31.075 37.4404 31.075H33.0904V37.825ZM54.2719 46.3C53.3719 46.3 52.4969 46.1667 51.6469 45.9C50.7969 45.6333 50.0052 45.25 49.2719 44.75C48.5385 44.25 47.8885 43.6333 47.3219 42.9C46.7719 42.15 46.3385 41.3167 46.0219 40.4C45.7052 39.4667 45.5469 38.4417 45.5469 37.325C45.5469 36.2583 45.7052 35.275 46.0219 34.375C46.3385 33.4583 46.7719 32.65 47.3219 31.95C47.8719 31.25 48.5135 30.6583 49.2469 30.175C49.9969 29.675 50.7969 29.3 51.6469 29.05C52.5135 28.7833 53.3969 28.65 54.2969 28.65C55.1302 28.65 55.8469 28.7333 56.4469 28.9C57.0469 29.0667 57.5385 29.25 57.9219 29.45C58.3052 29.6333 58.5635 29.775 58.6969 29.875C58.9302 30.0083 59.1552 30.1667 59.3719 30.35C59.5885 30.5333 59.7052 30.75 59.7219 31C59.7552 31.1833 59.7385 31.3333 59.6719 31.45C59.6219 31.5667 59.5552 31.6917 59.4719 31.825C59.3385 32.025 59.1969 32.175 59.0469 32.275C58.9135 32.3583 58.7635 32.4 58.5969 32.4C58.4302 32.4 58.2802 32.35 58.1469 32.25C58.0135 32.15 57.8385 32.0333 57.6219 31.9C57.5219 31.8333 57.3219 31.725 57.0219 31.575C56.7219 31.425 56.3385 31.2833 55.8719 31.15C55.4052 31 54.8385 30.925 54.1719 30.925C53.3219 30.925 52.5052 31.0833 51.7219 31.4C50.9552 31.7 50.2802 32.1333 49.6969 32.7C49.1135 33.2667 48.6552 33.95 48.3219 34.75C47.9885 35.55 47.8219 36.45 47.8219 37.45C47.8219 38.4667 47.9885 39.3833 48.3219 40.2C48.6552 41 49.1135 41.6833 49.6969 42.25C50.2969 42.8167 50.9802 43.25 51.7469 43.55C52.5135 43.85 53.3219 44 54.1719 44C54.8052 44 55.3552 43.9333 55.8219 43.8C56.3052 43.6667 56.6969 43.525 56.9969 43.375C57.3135 43.2083 57.5302 43.0833 57.6469 43C57.8302 42.9 57.9885 42.8 58.1219 42.7C58.2719 42.6 58.4302 42.55 58.5969 42.55C58.7635 42.55 58.9135 42.6 59.0469 42.7C59.1969 42.7833 59.3385 42.925 59.4719 43.125C59.5552 43.2417 59.6219 43.375 59.6719 43.525C59.7385 43.6583 59.7552 43.8083 59.7219 43.975C59.7052 44.225 59.5885 44.4417 59.3719 44.625C59.1552 44.7917 58.9302 44.95 58.6969 45.1C58.5469 45.1667 58.2802 45.3083 57.8969 45.525C57.5302 45.725 57.0469 45.9 56.4469 46.05C55.8469 46.2167 55.1219 46.3 54.2719 46.3Z" fill="#108B00"/>
</svg>